PathFileType	4	(X/Y/Z)	C:\Users\Basilio\Documents\Thesis Gigler\squatting_fais\c3dfiles\076\SJ_pre2\markers_experimental.trc
DataRate	CameraRate	NumFrames	NumMarkers	Units	OrigDataRate	OrigDataStartFrame	OrigNumFrames
200.000000	200.000000	4	61	mm	200.000000	728	1456
Frame#	Time	FHD			LBHD			RBHD			C7			T10			CLAV			LSHO			LUUPA			LMUPA			LDUPA			LLEP			LMEP			LRAD			LUL			LRFIN			RSHO			RUPA1			RMUPA			RDUPA			RLEP			RMEP			RRAD			RUL			RUFIN			LASI			RASI			USACR			LSACR			RSACR			LTHI1			LTHI2			LTHI3			LTHI4			LLFC			LMFC			LTIB1			LTIB2			LTIB3			LTIB4			LLMAL			LMMAL			LHEE			LMT1			LMT2			LMT5			RTHI			RTHI2			RTHI3			RTHI4			RLFC			RMFC			RTIB1			RTIB2			RTIB3			RTIB4			RLMAL			RMMAL			RHEE			RMT1			RMT2			RMT5			
		X1	Y1	Z1	X2	Y2	Z2	X3	Y3	Z3	X4	Y4	Z4	X5	Y5	Z5	X6	Y6	Z6	X7	Y7	Z7	X8	Y8	Z8	X9	Y9	Z9	X10	Y10	Z10	X11	Y11	Z11	X12	Y12	Z12	X13	Y13	Z13	X14	Y14	Z14	X15	Y15	Z15	X16	Y16	Z16	X17	Y17	Z17	X18	Y18	Z18	X19	Y19	Z19	X20	Y20	Z20	X21	Y21	Z21	X22	Y22	Z22	X23	Y23	Z23	X24	Y24	Z24	X25	Y25	Z25	X26	Y26	Z26	X27	Y27	Z27	X28	Y28	Z28	X29	Y29	Z29	X30	Y30	Z30	X31	Y31	Z31	X32	Y32	Z32	X33	Y33	Z33	X34	Y34	Z34	X35	Y35	Z35	X36	Y36	Z36	X37	Y37	Z37	X38	Y38	Z38	X39	Y39	Z39	X40	Y40	Z40	X41	Y41	Z41	X42	Y42	Z42	X43	Y43	Z43	X44	Y44	Z44	X45	Y45	Z45	X46	Y46	Z46	X47	Y47	Z47	X48	Y48	Z48	X49	Y49	Z49	X50	Y50	Z50	X51	Y51	Z51	X52	Y52	Z52	X53	Y53	Z53	X54	Y54	Z54	X55	Y55	Z55	X56	Y56	Z56	X57	Y57	Z57	X58	Y58	Z58	X59	Y59	Z59	X60	Y60	Z60	X61	Y61	Z61	

729	3.64	41.90396118164063	1140.322631835938	-885.880798339844	-106.8691024780274	1096.026000976563	-985.2553710937502	-94.53979492187501	1098.060668945313	-833.029235839844	-171.691650390625	1038.836181640625	-912.2066040039065	-420.1081848144532	854.6057739257815	-931.418884277344	-110.5093383789063	896.6536254882815	-907.2465820312502	-117.4666366577149	951.599548339844	-1075.313232421875	-200.7704010009766	843.5043945312502	-1220.5751953125	-229.410385131836	806.0927734375002	-1206.873046875	-241.4158477783204	806.323669433594	-1265.4365234375	-280.8307189941407	782.4028320312502	-1299.755859375	-343.1424255371094	845.5498657226565	-1294.777221679688	-461.7922668457032	722.5765380859376	-1146.332641601563	-442.1152343750001	662.2443847656251	-1162.416015625	-424.3562011718751	714.8002929687501	-1097.800659179688	-150.3655853271485	950.6230468750002	-748.0311279296876	-270.3214416503907	886.920104980469	-607.5996704101564	-281.0658874511719	837.3729248046877	-611.0405883789064	-318.7001037597657	854.385192871094	-566.4512329101564	-369.9572448730469	805.0713500976565	-546.8329467773439	-431.7392578125001	857.2617797851565	-586.7479858398439	-493.634979248047	710.3535156250001	-734.8394165039064	-443.4257812500001	702.2162475585939	-762.2770996093751	-469.5684814453126	654.3849487304689	-703.6804199218751	-414.0287170410157	636.4739990234376	-1035.589477539063	-432.6546020507814	628.6766357421876	-834.325378417969	-510.6046142578126	781.6912841796877	-934.3739013671877	-535.7080078125001	766.9358520507814	-964.658874511719	-539.5196533203126	762.5084228515626	-907.5481567382815	-450.8489379882814	603.0999145507814	-1141.996337890625	-370.4703674316407	580.0480346679689	-1139.407592773438	-343.1861267089844	608.7453613281251	-1109.941772460938	-347.5810852050782	524.6369628906251	-1148.897094726563	-232.7384796142579	418.9472961425782	-1137.869750976563	-225.6420440673829	410.4152221679689	-1028.8876953125	-240.6177520751954	278.6911010742188	-1067.9599609375	-274.6553344726563	235.1434631347657	-1137.2958984375	-253.6790924072266	228.1132507324219	-1096.52392578125	-306.9255065917969	169.8618316650391	-1068.952758789063	-397.6582031250001	79.0408172607422	-1137.417724609375	-380.9626464843751	86.57424926757814	-1050.61669921875	-463.3777160644532	43.42828750610352	-1095.076049804688	-253.6470031738282	53.94955444335939	-1065.822509765625	-246.223617553711	55.0190887451172	-1104.249145507813	-262.0891418457032	43.92845153808594	-1156.052368164063	-408.6931457519532	534.9110717773439	-712.3114624023439	-340.7803649902344	534.1961059570314	-700.0704345703126	-320.8037109375001	559.5896606445314	-714.7003784179689	-296.2654418945313	461.5693969726564	-698.3496704101564	-254.5059814453126	425.7517700195314	-694.9057617187501	-227.8936157226563	422.2498168945314	-798.3164672851565	-229.5656433105469	290.5684204101563	-713.1704711914064	-327.0398254394532	242.1266174316407	-690.9237060546876	-285.5813903808594	224.6029815673829	-706.9987182617189	-291.9061279296876	180.6238403320313	-744.4437866210939	-400.5946350097657	77.16320037841798	-717.7958984375001	-380.1122131347657	89.69542694091798	-801.3116455078127	-461.193084716797	50.42417526245119	-765.3120727539064	-253.4798126220704	52.76957321166994	-778.7943115234377	-250.7695617675782	56.62899780273439	-733.2901611328126	-277.7784118652344	34.45346069335938	-680.5718383789064	
730	3.645	43.19896697998048	1137.669799804688	-885.7860107421877	-105.5869445800782	1093.602905273438	-985.0444335937502	-93.19163513183595	1095.463256835938	-832.994812011719	-170.231674194336	1036.7197265625	-912.2175903320315	-419.6704711914064	854.156433105469	-931.3308105468752	-109.6128692626953	894.2711181640627	-907.1956787109377	-116.7994918823242	949.3515625000002	-1075.591552734375	-200.5572509765626	841.883728027344	-1220.585693359375	-228.9162597656251	804.392272949219	-1206.830810546875	-240.9214172363282	805.0025634765627	-1265.3037109375	-280.9553527832032	781.229919433594	-1299.888549804688	-342.6074829101563	844.4727783203127	-1294.78857421875	-462.1179809570314	722.4759521484376	-1146.411499023438	-442.8388061523439	661.8954467773439	-1162.395263671875	-425.0199584960939	714.4691162109376	-1097.761108398438	-149.1875305175782	948.4843750000002	-747.9048461914064	-269.6548156738282	885.3824462890627	-607.5106811523439	-280.4437866210938	835.853454589844	-611.0420532226564	-318.1779785156251	853.145690917969	-566.4412841796876	-369.6936340332032	804.2532348632815	-546.9352416992189	-431.3579101562501	856.6064453125002	-586.7982788085939	-493.9409179687501	710.0482177734376	-734.7903442382814	-443.9682617187501	701.7622070312501	-762.3527221679689	-469.9960327148439	654.3368530273439	-703.7100219726564	-413.4796752929689	636.9246826171876	-1035.671875	-431.6970214843751	629.0912475585939	-834.3284301757815	-511.0671691894532	781.4155883789065	-934.2902832031252	-536.3383178710939	766.2479248046876	-964.5588989257815	-539.9379882812501	761.8718261718751	-907.558532714844	-451.2182922363282	602.7252807617189	-1141.959228515625	-370.9360351562501	579.9558105468751	-1139.420166015625	-343.7179565429688	608.6925659179689	-1109.969848632813	-347.9674987792969	524.4818115234376	-1148.915405273438	-232.7977600097657	419.0061340332032	-1137.734741210938	-225.8370513916016	410.4506835937501	-1028.740234375	-240.6972045898438	278.7649230957032	-1067.849853515625	-274.7210083007813	235.2040100097657	-1137.207885742188	-253.7940063476563	228.1652832031251	-1096.500854492188	-306.9844970703126	169.9261169433594	-1068.851684570313	-397.639617919922	79.04233551025392	-1137.386840820313	-381.0079650878907	86.52700805664064	-1050.546997070313	-463.3601989746095	43.37829589843751	-1095.024047851563	-253.6426696777344	53.95376586914064	-1065.82275390625	-246.1786041259766	55.05812835693361	-1104.233764648438	-262.0664978027344	43.96974563598634	-1156.079345703125	-408.9399414062501	534.5911254882814	-712.2783203125001	-340.9780883789063	534.0532226562501	-700.0745239257814	-321.0095520019532	559.4515380859376	-714.7523803710939	-296.3925476074219	461.3980102539064	-698.2265625000001	-254.5318298339844	425.7030029296876	-694.7940063476564	-227.8632507324219	422.2261352539064	-798.188903808594	-229.5880279541016	290.5545959472657	-713.1342163085939	-327.0457153320313	242.1051025390626	-690.8878173828126	-285.6085205078126	224.5800933837891	-706.9194946289064	-291.8823547363282	180.5924377441407	-744.4238281250001	-400.5962219238282	77.17059326171876	-717.8209228515626	-380.0729980468751	89.7289276123047	-801.293395996094	-461.1743469238282	50.47516250610353	-765.3043823242189	-253.5357818603516	52.75873184204103	-778.8264160156252	-250.6714477539063	56.61522674560548	-733.2743530273439	-277.7710266113282	34.50774765014649	-680.5429687500001	
731	3.65	44.65121459960938	1134.76171875	-885.6721801757815	-104.3585281372071	1090.524047851563	-984.991394042969	-91.88779449462892	1092.865112304688	-832.867126464844	-168.8004302978516	1034.376098632813	-912.1678466796877	-419.3352355957032	853.6179809570315	-931.222351074219	-108.5663070678711	891.6323852539065	-907.074157714844	-115.0944137573242	946.6616821289065	-1075.226684570313	-199.8929901123047	839.7744750976565	-1220.4091796875	-228.6062927246094	802.9244384765627	-1206.7626953125	-240.8625030517579	803.3128051757815	-1264.880126953125	-280.9128417968751	779.662780761719	-1299.782958984375	-342.1857604980469	843.6202392578127	-1294.701904296875	-462.4959411621095	722.2512817382814	-1146.446411132813	-443.4043884277345	661.4730834960939	-1162.457397460938	-425.6321105957032	714.2797241210939	-1097.798706054688	-147.9846649169922	946.1423950195315	-747.8332519531251	-268.8052368164063	883.854675292969	-607.5684204101564	-279.9452209472657	834.3987426757815	-611.0488891601564	-317.5509948730469	851.7896728515627	-566.4735107421876	-369.4017333984376	803.2108154296877	-546.9777832031251	-430.7553710937501	855.9678955078127	-586.8846435546876	-494.2369689941407	709.7337036132814	-734.8117675781251	-444.4797973632814	701.2254638671876	-762.4437866210939	-470.5296936035157	653.6316528320314	-703.6338500976564	-415.1723632812501	635.2916870117189	-1035.42041015625	-433.4583435058595	628.0553588867189	-834.0184326171877	-511.5975646972657	780.7879028320315	-934.2974243164065	-536.7848510742189	765.9268188476564	-964.6259765625002	-540.3851928710939	761.7207641601564	-907.4821777343752	-451.6218566894532	602.3364868164064	-1141.97802734375	-371.3868713378907	579.7051391601564	-1139.387817382813	-344.2277832031251	608.6004638671876	-1109.856323242188	-348.3241882324219	524.2926025390626	-1148.900024414063	-233.1551208496094	419.0992126464845	-1137.729248046875	-226.0251770019532	410.4980468750001	-1028.672485351563	-240.8759307861329	278.8555297851563	-1067.808471679688	-274.7183837890626	235.2928619384766	-1137.194213867188	-253.8278961181641	228.2583465576172	-1096.399047851563	-307.0122680664063	169.9838562011719	-1068.84716796875	-397.5970458984376	79.00734710693361	-1137.353515625	-380.9784851074219	86.53098297119142	-1050.524780273438	-463.3833618164064	43.40808105468751	-1095.042846679688	-253.6645965576172	53.96638870239259	-1065.819580078125	-246.2217407226563	55.01548385620119	-1104.250244140625	-261.9716796875001	43.95458602905274	-1156.00341796875	-409.1784057617189	534.2365722656251	-712.2536010742189	-341.2607421875001	533.8710327148439	-700.1067504882814	-321.3044433593751	559.2902832031251	-714.6527099609376	-296.5520935058594	461.342010498047	-698.1834716796876	-254.5813140869141	425.6971740722657	-694.7198486328126	-227.8525085449219	422.1801757812501	-798.097595214844	-229.5902252197266	290.5551147460938	-713.0919189453126	-327.0061950683594	242.1405487060547	-690.7913208007814	-285.6704101562501	224.4355010986329	-706.9199829101564	-291.9103088378907	180.6057739257813	-744.4313964843751	-400.6253051757814	77.10359954833986	-717.8082885742189	-380.0536193847657	89.72508239746095	-801.278259277344	-461.2306213378907	50.47912216186525	-765.2829589843751	-253.5286407470704	52.77042770385744	-778.8279418945315	-250.7040100097657	56.57587814331056	-733.3214721679689	-277.7529602050782	34.54930496215821	-680.5407104492189	
732	3.655	46.19645690917969	1131.572265625	-885.4976196289065	-101.6494750976563	1088.459350585938	-985.5881347656252	-90.5598831176758	1089.981811523438	-832.775817871094	-167.2756958007813	1032.038818359375	-912.1138916015627	-418.9851989746095	853.0310058593752	-931.082946777344	-107.8840942382813	889.0142822265627	-907.2135009765627	-113.9306716918946	944.0281982421877	-1075.124877929688	-199.617172241211	837.9856567382815	-1220.641235351563	-228.5814208984376	801.1369628906252	-1206.906005859375	-240.7031555175782	801.594665527344	-1265.263916015625	-280.7229003906251	778.6204833984377	-1299.8837890625	-341.8049011230469	842.7945556640627	-1294.703735351563	-462.889373779297	722.0673217773439	-1146.549560546875	-444.2610168457032	661.1912841796876	-1162.637451171875	-426.1061096191407	713.9560546875001	-1097.812377929688	-146.7343444824219	943.8004150390627	-747.8430175781251	-267.9851074218751	882.2730102539065	-607.5345458984376	-279.3439941406251	832.801452636719	-611.0006103515626	-317.0055236816407	850.4492187500002	-566.4663085937501	-369.0997619628907	801.9183349609377	-546.9524536132814	-429.961395263672	855.405456542969	-586.8958740234376	-495.7259826660157	709.5163574218751	-734.8522949218751	-444.8114013671876	700.9093627929689	-762.4855957031251	-471.1626586914064	653.0976562500001	-703.6551513671876	-416.8383789062501	634.1403808593751	-1035.60546875	-435.221160888672	626.6670532226564	-834.1781005859377	-512.0012817382814	780.2845458984377	-934.1926879882815	-537.3546752929689	765.6687622070314	-964.5303955078127	-540.9973754882814	761.3795776367189	-907.3999633789065	-452.1214904785157	601.9336547851564	-1141.99658203125	-371.1858215332032	579.3688964843751	-1139.14013671875	-344.5325317382813	608.4028930664064	-1109.773071289063	-348.7380676269532	524.1080322265626	-1148.94970703125	-233.2981719970704	419.1365051269532	-1137.686157226563	-226.2610931396485	410.6068725585939	-1028.563720703125	-241.0461120605469	278.8567199707032	-1067.808227539063	-274.9390258789063	235.3166656494141	-1137.0947265625	-253.9497985839844	228.3323822021485	-1096.35498046875	-307.0652465820313	170.0075836181641	-1068.834594726563	-397.6439819335939	79.01409149169923	-1137.354248046875	-381.0197753906251	86.50111389160158	-1050.529052734375	-463.2979431152345	43.3923454284668	-1095.074951171875	-253.6869201660157	53.99276351928712	-1065.781372070313	-246.2326049804688	55.06905364990236	-1104.259887695313	-262.0705566406251	43.97008132934571	-1156.0126953125	-409.4459533691407	533.9335937500001	-712.2629394531251	-341.5050659179688	533.7246704101564	-700.1330566406251	-321.6045532226563	559.1003417968751	-714.5684814453126	-296.6956176757813	461.2352600097657	-698.1271362304689	-254.6303100585938	425.6163940429689	-694.6187133789064	-228.0134735107422	422.2520751953126	-798.0186157226565	-229.5760650634766	290.5444030761719	-713.0861816406251	-326.9756469726563	242.1313171386719	-690.7467651367189	-285.5755310058594	224.586898803711	-706.9150390625001	-291.8715209960938	180.6630554199219	-744.4118041992189	-400.5904541015626	77.11947631835939	-717.7815551757814	-380.0576782226563	89.75443267822267	-801.2965087890627	-461.1727600097657	50.45922088623048	-765.2841186523439	-253.5418701171876	52.7809181213379	-778.8347778320315	-250.9737701416016	56.7447967529297	-733.3475952148439	-277.7769775390626	34.30077743530274	-680.6475219726564	
